<svg width="19" height="30" viewBox="0 0 19 30" fill="none" xmlns="http://www.w3.org/2000/svg">
<g id="003-pin">
<g id="Shape" filter="url(#filter0_dd_0_626)">
<path fill-rule="evenodd" clip-rule="evenodd" d="M7.03013 1.00158C9.42758 1.05049 11.5835 2.33021 12.7973 4.4249C14.038 6.56599 14.072 9.13786 12.8882 11.3047L7.92872 20.3823L7.92196 20.3943C7.7038 20.7736 7.3129 21 6.87634 21C6.43974 21 6.04884 20.7736 5.83064 20.3943L5.82388 20.3823L0.86439 11.3047C-0.319437 9.13786 -0.285492 6.56599 0.95521 4.4249C2.16904 2.33021 4.32497 1.05049 6.72239 1.00158C6.82477 0.999473 6.92778 0.999473 7.03013 1.00158ZM4.06376 7.25001C4.06376 8.80083 5.32544 10.0625 6.87626 10.0625C8.42712 10.0625 9.68876 8.80083 9.68876 7.25001C9.68876 5.69919 8.42708 4.43752 6.87626 4.43752C5.32544 4.43752 4.06376 5.69919 4.06376 7.25001Z" fill="#4B6A9B"/>
<path d="M12.7973 4.4249L12.3647 4.67558L12.3647 4.67559L12.7973 4.4249ZM7.03013 1.00158L7.01982 1.50148L7.01993 1.50148L7.03013 1.00158ZM12.8882 11.3047L13.327 11.5444L13.327 11.5444L12.8882 11.3047ZM7.92872 20.3823L8.36469 20.6272L8.3675 20.622L7.92872 20.3823ZM7.92196 20.3943L8.35538 20.6437L8.3579 20.6392L7.92196 20.3943ZM5.83064 20.3943L5.39467 20.6392L5.39725 20.6437L5.83064 20.3943ZM5.82388 20.3823L5.38506 20.622L5.38793 20.6272L5.82388 20.3823ZM0.86439 11.3047L0.425606 11.5444L0.425606 11.5444L0.86439 11.3047ZM0.95521 4.4249L0.522597 4.17421L0.522596 4.17421L0.95521 4.4249ZM6.72239 1.00158L6.73259 1.50148L6.73269 1.50148L6.72239 1.00158ZM13.2299 4.17421C11.9296 1.93014 9.61451 0.554197 7.04032 0.501686L7.01993 1.50148C9.24066 1.54678 11.2375 2.73029 12.3647 4.67558L13.2299 4.17421ZM13.327 11.5444C14.5947 9.22384 14.558 6.46606 13.2299 4.17421L12.3647 4.67559C13.518 6.66592 13.5492 9.05188 12.4494 11.065L13.327 11.5444ZM8.3675 20.622L13.327 11.5444L12.4494 11.065L7.48994 20.1426L8.3675 20.622ZM8.3579 20.6392L8.36466 20.6272L7.49278 20.1375L7.48602 20.1495L8.3579 20.6392ZM6.87634 21.5C7.49231 21.5 8.04823 21.1775 8.35536 20.6437L7.48856 20.145C7.35936 20.3696 7.13349 20.5 6.87634 20.5V21.5ZM5.39725 20.6437C5.70443 21.1776 6.26035 21.5 6.87634 21.5V20.5C6.61912 20.5 6.39325 20.3696 6.26402 20.145L5.39725 20.6437ZM5.38793 20.6272L5.39469 20.6392L6.26658 20.1495L6.25982 20.1375L5.38793 20.6272ZM0.425606 11.5444L5.38509 20.622L6.26266 20.1426L1.30317 11.065L0.425606 11.5444ZM0.522596 4.17421C-0.805465 6.46606 -0.842214 9.22385 0.425606 11.5444L1.30317 11.065C0.203341 9.05188 0.234482 6.66592 1.38783 4.67559L0.522596 4.17421ZM6.71219 0.501686C4.13805 0.554197 1.82299 1.93014 0.522597 4.17421L1.38782 4.67559C2.51509 2.73028 4.5119 1.54678 6.73259 1.50148L6.71219 0.501686ZM7.04043 0.501688C6.93122 0.499437 6.82134 0.499437 6.71209 0.501688L6.73269 1.50148C6.82821 1.49951 6.92435 1.49951 7.01982 1.50148L7.04043 0.501688ZM6.87626 9.56251C5.60158 9.56251 4.56376 8.52469 4.56376 7.25001H3.56376C3.56376 9.07697 5.0493 10.5625 6.87626 10.5625V9.56251ZM9.18876 7.25001C9.18876 8.52469 8.15097 9.56251 6.87626 9.56251V10.5625C8.70326 10.5625 10.1888 9.07697 10.1888 7.25001H9.18876ZM6.87626 4.93752C8.15094 4.93752 9.18876 5.97534 9.18876 7.25001H10.1888C10.1888 5.42305 8.70322 3.93752 6.87626 3.93752V4.93752ZM4.56376 7.25001C4.56376 5.97534 5.60158 4.93752 6.87626 4.93752V3.93752C5.0493 3.93752 3.56376 5.42305 3.56376 7.25001H4.56376Z" fill="black"/>
</g>
</g>
<defs>
<filter id="filter0_dd_0_626" x="-4.5" y="0.5" width="22.7525" height="29" filterUnits="userSpaceOnUse" color-interpolation-filters="sRGB">
<feFlood flood-opacity="0" result="BackgroundImageFix"/>
<feColorMatrix in="SourceAlpha" type="matrix" values="0 0 0 0 0 0 0 0 0 0 0 0 0 0 0 0 0 0 127 0" result="hardAlpha"/>
<feOffset dy="4"/>
<feGaussianBlur stdDeviation="2"/>
<feComposite in2="hardAlpha" operator="out"/>
<feColorMatrix type="matrix" values="0 0 0 0 0 0 0 0 0 0 0 0 0 0 0 0 0 0 0.25 0"/>
<feBlend mode="normal" in2="BackgroundImageFix" result="effect1_dropShadow_0_626"/>
<feColorMatrix in="SourceAlpha" type="matrix" values="0 0 0 0 0 0 0 0 0 0 0 0 0 0 0 0 0 0 127 0" result="hardAlpha"/>
<feOffset dy="4"/>
<feGaussianBlur stdDeviation="2"/>
<feComposite in2="hardAlpha" operator="out"/>
<feColorMatrix type="matrix" values="0 0 0 0 0 0 0 0 0 0 0 0 0 0 0 0 0 0 0.25 0"/>
<feBlend mode="normal" in2="effect1_dropShadow_0_626" result="effect2_dropShadow_0_626"/>
<feBlend mode="normal" in="SourceGraphic" in2="effect2_dropShadow_0_626" result="shape"/>
</filter>
</defs>
</svg>
